<svg width="105" height="105" viewBox="0 0 105 105" fill="none" xmlns="http://www.w3.org/2000/svg">
<path d="M52.4765 105C50.902 105 49.3039 104.625 47.9174 103.917L33.4176 96.3116C31.2556 95.2282 32.3131 94.8532 33.0181 94.6448C35.9087 93.7489 36.4962 93.5614 39.5748 91.9987C39.9038 91.832 40.3268 91.8945 40.6558 92.0821L51.795 97.9368C52.1945 98.1452 52.7585 98.1452 53.1345 97.9368L96.5398 75.7263C96.9393 75.5179 97.1978 75.1012 97.1978 74.6845V30.2634C97.1978 29.8259 96.9393 29.43 96.5163 29.2008L53.1345 7.01111C52.735 6.80276 52.1945 6.80276 51.795 7.01111L8.43666 29.2216C8.01365 29.43 7.75515 29.8467 7.75515 30.2843V74.6845C7.75515 75.1012 8.01365 75.5179 8.43666 75.7054L20.3279 81.7894C26.7905 84.6438 30.7386 81.2893 30.7386 77.8931V34.0555C30.7386 33.4304 31.3026 32.9512 32.0076 32.9512H37.5067C38.1882 32.9512 38.7757 33.4304 38.7757 34.0555V77.914C38.7757 85.5397 34.0757 89.9152 25.921 89.9152C23.4064 89.9152 21.4324 89.9152 15.9333 87.4983L4.55909 81.6852C1.73903 80.2475 0 77.5598 0 74.6637V30.2634C0 27.3881 1.73903 24.6795 4.55909 23.2419L47.9174 1.03135C50.667 -0.343784 54.3095 -0.343784 57.0356 1.03135L100.441 23.2627C103.261 24.7004 105 27.3881 105 30.2843V74.6845C105 77.5598 103.261 80.2475 100.441 81.706L57.0356 103.917C55.6491 104.625 54.0745 105 52.4765 105ZM87.5157 61.2248C87.5157 52.9115 81.1705 50.7029 67.8458 49.1403C54.3565 47.5568 52.9935 46.7442 52.9935 43.9523C52.9935 41.6395 54.145 38.5559 64.1327 38.5559C73.0394 38.5559 76.3295 40.2644 77.6925 45.5983C77.81 46.0983 78.327 46.4734 78.9145 46.4734H84.5546C84.9071 46.4734 85.2361 46.3483 85.4711 46.1192C85.7061 45.89 85.8236 45.5774 85.8001 45.2649C84.9306 36.0765 78.045 31.8052 64.1327 31.8052C51.748 31.8052 44.3688 36.4307 44.3688 44.2023C44.3688 52.6198 51.7245 54.9534 63.5922 55.9951C77.81 57.2244 78.9145 59.0788 78.9145 61.5582C78.9145 65.8503 75.0134 67.6838 65.8718 67.6838C54.38 67.6838 51.8655 65.121 51.0195 60.058C50.9255 59.5163 50.4085 59.1204 49.7739 59.1204H44.1573C43.4523 59.1204 42.9118 59.6205 42.9118 60.2247C42.9118 66.7045 46.8834 74.4345 65.8953 74.4345C79.6195 74.4136 87.5157 69.6007 87.5157 61.2248Z" fill="#4FFFA0"/>
</svg>
